<svg version="1.2" baseProfile="tiny-ps" xmlns="http://www.w3.org/2000/svg" viewBox="0 0 1025 323" width="200" height="63">
	<title>obada-logo</title>
	<style>
		tspan { white-space:pre }
		.shp0 { fill: #1f497d } 
		.shp1 { fill: #3d85c6 } 
	</style>
	<path id="OBADA " fill-rule="evenodd" class="shp0" d="M203.38 158.74C203.38 176.46 201.18 192.31 196.77 206.28C192.37 220.25 185.82 232.13 177.13 241.92C168.44 251.61 157.66 259.03 144.79 264.2C132.02 269.27 117.22 271.8 100.39 271.8C83.78 271.8 69.25 269.65 56.82 265.36C44.5 260.96 34.21 254.3 25.96 245.39C17.71 236.48 11.49 225.14 7.31 211.39C3.24 197.64 1.2 181.35 1.2 162.54C1.2 145.27 3.4 129.75 7.8 116C12.21 102.13 18.75 90.36 27.44 80.68C36.13 71 46.86 63.57 59.63 58.4C72.5 53.23 87.41 50.64 104.35 50.64C120.52 50.64 134.77 52.79 147.1 57.08C159.53 61.37 169.88 67.97 178.13 76.88C186.49 85.79 192.76 97.07 196.94 110.72C201.23 124.25 203.38 140.26 203.38 158.74ZM157.83 161.05C157.83 149.83 156.95 139.65 155.18 130.52C153.42 121.28 150.4 113.41 146.11 106.92C141.93 100.32 136.32 95.26 129.27 91.74C122.23 88.11 113.43 86.29 102.87 86.29C92.2 86.29 83.28 88.33 76.13 92.4C68.98 96.36 63.2 101.7 58.8 108.41C54.4 115.12 51.26 122.98 49.39 132.01C47.63 140.92 46.75 150.38 46.75 160.39C46.75 172.06 47.63 182.57 49.39 191.92C51.16 201.16 54.13 209.08 58.31 215.68C62.49 222.28 68.1 227.34 75.14 230.87C82.18 234.28 91.04 235.98 101.71 235.98C112.38 235.98 121.3 234 128.45 230.04C135.6 226.08 141.38 220.69 145.78 213.87C150.18 207.04 153.26 199.12 155.02 190.1C156.89 180.97 157.83 171.28 157.83 161.05ZM394.49 203.96C394.49 211.55 393.45 218.43 391.36 224.59C389.27 230.76 386.35 236.2 382.61 240.93C378.98 245.66 374.58 249.74 369.41 253.15C364.34 256.56 358.73 259.36 352.57 261.56C346.41 263.76 339.81 265.41 332.77 266.51C325.84 267.5 318.08 268 309.5 268L252.72 268C249.09 268 246.01 266.95 243.48 264.86C241.06 262.66 239.85 259.14 239.85 254.3L239.85 68.14C239.85 63.3 241.06 59.83 243.48 57.74C246.01 55.54 249.09 54.44 252.72 54.44L306.36 54.44C319.45 54.44 330.51 55.54 339.53 57.74C348.66 59.94 356.31 63.3 362.47 67.81C368.74 72.21 373.53 77.82 376.83 84.64C380.13 91.46 381.78 99.49 381.78 108.74C381.78 113.91 381.12 118.8 379.8 123.43C378.48 127.94 376.56 132.06 374.03 135.8C371.5 139.55 368.36 142.85 364.62 145.71C360.99 148.57 356.81 150.88 352.08 152.64C358.13 153.74 363.68 155.66 368.75 158.41C373.92 161.16 378.37 164.74 382.11 169.14C385.96 173.43 388.99 178.5 391.19 184.33C393.39 190.16 394.49 196.7 394.49 203.96ZM338.38 114.02C338.38 109.73 337.72 105.88 336.4 102.47C335.08 99.06 333.1 96.25 330.46 94.05C327.82 91.74 324.46 89.98 320.39 88.77C316.43 87.56 311.09 86.95 304.38 86.95L282.43 86.95L282.43 142.41L306.69 142.41C312.96 142.41 317.97 141.69 321.71 140.26C325.45 138.72 328.53 136.68 330.95 134.15C333.48 131.51 335.35 128.49 336.56 125.08C337.77 121.55 338.38 117.87 338.38 114.02ZM349.44 205.45C349.44 200.5 348.61 196.1 346.96 192.25C345.31 188.29 342.89 184.99 339.7 182.34C336.51 179.7 332.44 177.67 327.49 176.24C322.54 174.81 316.1 174.09 308.18 174.09L282.43 174.09L282.43 234.83L313.79 234.83C319.84 234.83 324.9 234.22 328.97 233.01C333.15 231.69 336.73 229.82 339.7 227.4C342.78 224.87 345.14 221.79 346.79 218.16C348.56 214.42 349.44 210.18 349.44 205.45ZM956.12 62.53L1022.13 251.83C1023.46 255.79 1024.28 258.92 1024.61 261.23C1024.94 263.54 1024.5 265.3 1023.29 266.51C1022.08 267.62 1019.93 268.33 1016.85 268.66C1013.77 268.88 1009.54 268.99 1004.15 268.99C998.54 268.99 994.13 268.94 990.94 268.83C987.86 268.61 985.5 268.28 983.85 267.83C982.2 267.28 981.04 266.57 980.38 265.69C979.72 264.81 979.17 263.65 978.73 262.22L964.37 219.31L884.16 219.31L870.63 261.07C870.19 262.61 869.58 263.93 868.81 265.03C868.15 266.02 867 266.84 865.35 267.5C863.81 268.05 861.55 268.44 858.58 268.66C855.72 268.88 851.92 268.99 847.19 268.99C842.13 268.99 838.17 268.83 835.31 268.5C832.45 268.17 830.47 267.39 829.37 266.18C828.27 264.86 827.88 263.05 828.21 260.74C828.54 258.43 829.37 255.35 830.69 251.5L896.54 62.03C897.2 60.16 897.97 58.68 898.85 57.58C899.73 56.37 901.11 55.48 902.98 54.93C904.96 54.27 907.65 53.89 911.06 53.78C914.47 53.56 918.99 53.45 924.6 53.45C931.09 53.45 936.26 53.56 940.11 53.78C943.96 53.89 946.93 54.27 949.02 54.93C951.22 55.48 952.76 56.37 953.64 57.58C954.63 58.79 955.46 60.44 956.12 62.53ZM954.3 185.98L924.1 95.2L923.94 95.2L893.73 185.98L954.3 185.98Z" />
	<path id="OBADA " fill-rule="evenodd" class="shp1" d="M563.99 62.53L591.88 251.83C592.43 255.79 592.65 258.92 592.54 261.23C592.54 263.54 591.77 265.3 590.23 266.51C588.8 267.62 586.38 268.33 582.97 268.66C579.56 268.88 574.88 268.99 568.94 268.99C564.76 268.99 561.35 268.94 558.71 268.83C556.06 268.61 554.03 268.28 552.6 267.83C551.17 267.39 550.18 266.73 549.63 265.85C549.08 264.97 548.75 263.76 548.64 262.22L542.86 219.31L462.65 219.31L440.54 261.23C439.77 262.77 438.89 264.09 437.9 265.19C436.91 266.18 435.48 266.95 433.61 267.5C431.74 268.05 429.2 268.44 426.01 268.66C422.93 268.88 419.03 268.99 414.3 268.99C409.23 268.99 405.27 268.83 402.41 268.5C399.66 268.17 397.79 267.39 396.8 266.18C395.92 264.86 395.81 263.05 396.47 260.74C397.24 258.43 398.67 255.35 400.76 251.5L504.41 62.03C505.51 60.16 506.61 58.68 507.71 57.58C508.81 56.37 510.35 55.48 512.33 54.93C514.42 54.27 517.17 53.89 520.58 53.78C524.1 53.56 528.67 53.45 534.28 53.45C540.77 53.45 545.89 53.56 549.63 53.78C553.48 53.89 556.45 54.27 558.54 54.93C560.63 55.48 562.01 56.37 562.67 57.58C563.33 58.79 563.77 60.44 563.99 62.53ZM539.23 185.98L527.02 95.2L526.85 95.2L479.16 185.98L539.23 185.98ZM820.46 131.68C820.46 138.28 820.02 145.27 819.14 152.64C818.37 160.01 816.99 167.55 815.01 175.25C813.14 182.84 810.56 190.43 807.25 198.02C804.06 205.51 800.05 212.71 795.21 219.64C790.36 226.47 784.59 232.85 777.88 238.79C771.27 244.73 763.63 249.9 754.94 254.3C746.25 258.59 736.45 261.95 725.56 264.37C714.67 266.79 701.68 268 686.61 268L632.31 268C630.55 268 628.85 267.78 627.2 267.34C625.66 266.9 624.34 266.18 623.24 265.19C622.25 264.09 621.53 262.66 621.09 260.9C620.76 259.14 620.87 256.94 621.42 254.3L658.72 68.14C659.6 63.3 661.53 59.83 664.5 57.74C667.47 55.54 670.99 54.44 675.06 54.44L726.55 54.44C743.5 54.44 757.63 56.09 768.96 59.39C780.41 62.69 789.93 67.59 797.52 74.08C805.22 80.57 810.94 88.66 814.68 98.34C818.53 107.91 820.46 119.03 820.46 131.68ZM774.91 136.79C774.91 129.86 773.97 123.43 772.1 117.48C770.23 111.54 767.2 106.43 763.02 102.14C758.84 97.85 753.45 94.49 746.85 92.07C740.36 89.65 731.61 88.44 720.61 88.44L698 88.44L668.79 233.67L691.56 233.67C703.11 233.67 712.8 232.3 720.61 229.55C728.53 226.68 735.46 222.83 741.4 217.99C747.45 213.04 752.57 207.38 756.75 200.99C761.04 194.5 764.51 187.68 767.15 180.53C769.9 173.38 771.88 166.06 773.09 158.58C774.3 151.1 774.91 143.84 774.91 136.79Z" />
</svg>
